<mxfile host="app.diagrams.net" modified="2022-11-28T04:00:12.690Z" agent="5.0 (Windows NT 10.0; Win64; x64) AppleWebKit/537.36 (KHTML, like Gecko) Chrome/107.0.0.0 Safari/537.36 Edg/107.0.1418.56" version="20.6.0" etag="Fa6cScbpars0mpgiObiT" type="github">
  <diagram id="N-2m9nSpyJ4no4yd52WH" name="Page-1">
    <mxGraphModel dx="1101" dy="703" grid="1" gridSize="10" guides="1" tooltips="1" connect="1" arrows="1" fold="1" page="1" pageScale="1" pageWidth="850" pageHeight="1100" math="0" shadow="0">
      <root>
        <mxCell id="0" />
        <mxCell id="1" parent="0" />
        <mxCell id="mlqY82NbR3tvjnPRO45H-1" value="Insert bảng giá trị công việc" style="rounded=0;whiteSpace=wrap;html=1;" vertex="1" parent="1">
          <mxGeometry x="320" y="110" width="120" height="60" as="geometry" />
        </mxCell>
        <mxCell id="mlqY82NbR3tvjnPRO45H-2" value="Return" style="rounded=0;whiteSpace=wrap;html=1;" vertex="1" parent="1">
          <mxGeometry x="220" y="240" width="120" height="60" as="geometry" />
        </mxCell>
        <mxCell id="mlqY82NbR3tvjnPRO45H-3" value="Insert bảng pm_logworkgroup&lt;br&gt;(productionplanid, proindexid, workid, typelog)" style="rounded=0;whiteSpace=wrap;html=1;" vertex="1" parent="1">
          <mxGeometry x="425" y="240" width="255" height="60" as="geometry" />
        </mxCell>
        <mxCell id="mlqY82NbR3tvjnPRO45H-16" style="edgeStyle=none;rounded=0;orthogonalLoop=1;jettySize=auto;html=1;exitX=0.75;exitY=1;exitDx=0;exitDy=0;entryX=0.5;entryY=0;entryDx=0;entryDy=0;" edge="1" parent="1" source="mlqY82NbR3tvjnPRO45H-5" target="mlqY82NbR3tvjnPRO45H-13">
          <mxGeometry relative="1" as="geometry" />
        </mxCell>
        <mxCell id="mlqY82NbR3tvjnPRO45H-19" style="edgeStyle=none;rounded=0;orthogonalLoop=1;jettySize=auto;html=1;exitX=0.25;exitY=1;exitDx=0;exitDy=0;entryX=0.25;entryY=0;entryDx=0;entryDy=0;" edge="1" parent="1" source="mlqY82NbR3tvjnPRO45H-5" target="mlqY82NbR3tvjnPRO45H-18">
          <mxGeometry relative="1" as="geometry" />
        </mxCell>
        <mxCell id="mlqY82NbR3tvjnPRO45H-5" value="Tìm list trong bảng pm_productionplan_index_status&lt;br&gt;(proindexid, islast = true,, isdelete =false)" style="rounded=0;whiteSpace=wrap;html=1;" vertex="1" parent="1">
          <mxGeometry x="425" y="370" width="275" height="60" as="geometry" />
        </mxCell>
        <mxCell id="mlqY82NbR3tvjnPRO45H-7" value="Success" style="text;html=1;strokeColor=none;fillColor=none;align=center;verticalAlign=middle;whiteSpace=wrap;rounded=0;" vertex="1" parent="1">
          <mxGeometry x="470" y="180" width="60" height="30" as="geometry" />
        </mxCell>
        <mxCell id="mlqY82NbR3tvjnPRO45H-8" value="" style="endArrow=classic;html=1;rounded=0;entryX=0.5;entryY=0;entryDx=0;entryDy=0;exitX=0;exitY=1;exitDx=0;exitDy=0;" edge="1" parent="1" source="mlqY82NbR3tvjnPRO45H-1" target="mlqY82NbR3tvjnPRO45H-2">
          <mxGeometry width="50" height="50" relative="1" as="geometry">
            <mxPoint x="250" y="210" as="sourcePoint" />
            <mxPoint x="300" y="160" as="targetPoint" />
          </mxGeometry>
        </mxCell>
        <mxCell id="mlqY82NbR3tvjnPRO45H-9" value="" style="endArrow=classic;html=1;rounded=0;entryX=0.5;entryY=0;entryDx=0;entryDy=0;exitX=1;exitY=1;exitDx=0;exitDy=0;" edge="1" parent="1" source="mlqY82NbR3tvjnPRO45H-1" target="mlqY82NbR3tvjnPRO45H-3">
          <mxGeometry width="50" height="50" relative="1" as="geometry">
            <mxPoint x="440" y="220" as="sourcePoint" />
            <mxPoint x="490" y="170" as="targetPoint" />
          </mxGeometry>
        </mxCell>
        <mxCell id="mlqY82NbR3tvjnPRO45H-10" value="Fail" style="text;html=1;strokeColor=none;fillColor=none;align=center;verticalAlign=middle;whiteSpace=wrap;rounded=0;" vertex="1" parent="1">
          <mxGeometry x="220" y="170" width="60" height="30" as="geometry" />
        </mxCell>
        <mxCell id="mlqY82NbR3tvjnPRO45H-11" value="" style="endArrow=classic;html=1;rounded=0;entryX=0.5;entryY=0;entryDx=0;entryDy=0;exitX=0.5;exitY=1;exitDx=0;exitDy=0;" edge="1" parent="1" source="mlqY82NbR3tvjnPRO45H-3" target="mlqY82NbR3tvjnPRO45H-5">
          <mxGeometry width="50" height="50" relative="1" as="geometry">
            <mxPoint x="460" y="350" as="sourcePoint" />
            <mxPoint x="510" y="300" as="targetPoint" />
          </mxGeometry>
        </mxCell>
        <mxCell id="mlqY82NbR3tvjnPRO45H-12" value="Success" style="text;html=1;strokeColor=none;fillColor=none;align=center;verticalAlign=middle;whiteSpace=wrap;rounded=0;" vertex="1" parent="1">
          <mxGeometry x="560" y="310" width="60" height="30" as="geometry" />
        </mxCell>
        <mxCell id="mlqY82NbR3tvjnPRO45H-20" style="edgeStyle=none;rounded=0;orthogonalLoop=1;jettySize=auto;html=1;exitX=0.5;exitY=1;exitDx=0;exitDy=0;entryX=0.75;entryY=0;entryDx=0;entryDy=0;" edge="1" parent="1" source="mlqY82NbR3tvjnPRO45H-13" target="mlqY82NbR3tvjnPRO45H-18">
          <mxGeometry relative="1" as="geometry" />
        </mxCell>
        <mxCell id="mlqY82NbR3tvjnPRO45H-13" value="Insert pm_productionplan_index_status&lt;br&gt;(statusid = &#39;Tiến hành&#39;)" style="rounded=0;whiteSpace=wrap;html=1;" vertex="1" parent="1">
          <mxGeometry x="610" y="500" width="190" height="60" as="geometry" />
        </mxCell>
        <mxCell id="mlqY82NbR3tvjnPRO45H-17" value="Nếu list.size == 0" style="text;html=1;strokeColor=none;fillColor=none;align=center;verticalAlign=middle;whiteSpace=wrap;rounded=0;" vertex="1" parent="1">
          <mxGeometry x="720" y="450" width="110" height="30" as="geometry" />
        </mxCell>
        <mxCell id="mlqY82NbR3tvjnPRO45H-23" style="edgeStyle=none;rounded=0;orthogonalLoop=1;jettySize=auto;html=1;exitX=0.75;exitY=1;exitDx=0;exitDy=0;entryX=0.5;entryY=0;entryDx=0;entryDy=0;" edge="1" parent="1" source="mlqY82NbR3tvjnPRO45H-18" target="mlqY82NbR3tvjnPRO45H-21">
          <mxGeometry relative="1" as="geometry" />
        </mxCell>
        <mxCell id="mlqY82NbR3tvjnPRO45H-25" style="edgeStyle=none;rounded=0;orthogonalLoop=1;jettySize=auto;html=1;exitX=0.25;exitY=1;exitDx=0;exitDy=0;entryX=0;entryY=0;entryDx=0;entryDy=0;" edge="1" parent="1" source="mlqY82NbR3tvjnPRO45H-18" target="mlqY82NbR3tvjnPRO45H-24">
          <mxGeometry relative="1" as="geometry" />
        </mxCell>
        <mxCell id="mlqY82NbR3tvjnPRO45H-18" value="&lt;br&gt;&lt;span style=&quot;color: rgb(0, 0, 0); font-family: Helvetica; font-size: 12px; font-style: normal; font-variant-ligatures: normal; font-variant-caps: normal; font-weight: 400; letter-spacing: normal; orphans: 2; text-align: center; text-indent: 0px; text-transform: none; widows: 2; word-spacing: 0px; -webkit-text-stroke-width: 0px; background-color: rgb(248, 249, 250); text-decoration-thickness: initial; text-decoration-style: initial; text-decoration-color: initial; float: none; display: inline !important;&quot;&gt;Tìm đối tượng trong bảng pm_productionplan_status&lt;br&gt;&lt;/span&gt;(productionplanid, islast = true, isdelete=false )&lt;br&gt;" style="rounded=0;whiteSpace=wrap;html=1;" vertex="1" parent="1">
          <mxGeometry x="425" y="630" width="275" height="70" as="geometry" />
        </mxCell>
        <mxCell id="mlqY82NbR3tvjnPRO45H-26" style="edgeStyle=none;rounded=0;orthogonalLoop=1;jettySize=auto;html=1;exitX=0.5;exitY=1;exitDx=0;exitDy=0;entryX=1;entryY=0;entryDx=0;entryDy=0;" edge="1" parent="1" source="mlqY82NbR3tvjnPRO45H-21" target="mlqY82NbR3tvjnPRO45H-24">
          <mxGeometry relative="1" as="geometry" />
        </mxCell>
        <mxCell id="mlqY82NbR3tvjnPRO45H-21" value="Insert pm_productionplan_status&lt;br&gt;(statusid = &#39;đang tiến hành&#39;)" style="rounded=0;whiteSpace=wrap;html=1;" vertex="1" parent="1">
          <mxGeometry x="620" y="780" width="190" height="60" as="geometry" />
        </mxCell>
        <mxCell id="mlqY82NbR3tvjnPRO45H-22" value="Nếu statusid == &#39;đã nhận&#39;" style="text;html=1;strokeColor=none;fillColor=none;align=center;verticalAlign=middle;whiteSpace=wrap;rounded=0;" vertex="1" parent="1">
          <mxGeometry x="690" y="720" width="150" height="30" as="geometry" />
        </mxCell>
        <mxCell id="mlqY82NbR3tvjnPRO45H-24" value="Return" style="rounded=0;whiteSpace=wrap;html=1;" vertex="1" parent="1">
          <mxGeometry x="490" y="880" width="120" height="60" as="geometry" />
        </mxCell>
      </root>
    </mxGraphModel>
  </diagram>
</mxfile>
